<mxfile host="app.diagrams.net" modified="2023-12-11T18:24:30.504Z" agent="Mozilla/5.0 (Windows NT 10.0; Win64; x64) AppleWebKit/537.36 (KHTML, like Gecko) Chrome/120.0.0.0 Safari/537.36" etag="X8XaWW7TUz68_wfbtTJT" version="22.1.7" type="google">
  <diagram name="PÃ¡gina-1" id="TymgGsW29XWCMtCsAy5k">
    <mxGraphModel grid="1" page="1" gridSize="10" guides="1" tooltips="1" connect="1" arrows="1" fold="1" pageScale="1" pageWidth="827" pageHeight="1169" math="0" shadow="0">
      <root>
        <mxCell id="0" />
        <mxCell id="1" parent="0" />
        <mxCell id="Sk9jBVQQrTzFYBsmuePe-25" value="Plans" style="shape=table;startSize=30;container=1;collapsible=1;childLayout=tableLayout;fixedRows=1;rowLines=0;fontStyle=1;align=center;resizeLast=1;html=1;verticalAlign=middle;spacingLeft=4;spacingRight=4;fontFamily=Helvetica;fontSize=12;fontColor=default;fillColor=none;gradientColor=none;" vertex="1" parent="1">
          <mxGeometry x="80" y="280" width="230" height="120" as="geometry">
            <mxRectangle x="80" y="280" width="80" height="30" as="alternateBounds" />
          </mxGeometry>
        </mxCell>
        <mxCell id="Sk9jBVQQrTzFYBsmuePe-26" value="" style="shape=tableRow;horizontal=0;startSize=0;swimlaneHead=0;swimlaneBody=0;fillColor=none;collapsible=0;dropTarget=0;points=[[0,0.5],[1,0.5]];portConstraint=eastwest;top=0;left=0;right=0;bottom=1;align=left;verticalAlign=middle;spacingLeft=4;spacingRight=4;fontFamily=Helvetica;fontSize=12;fontColor=default;html=1;" vertex="1" parent="Sk9jBVQQrTzFYBsmuePe-25">
          <mxGeometry y="30" width="230" height="30" as="geometry" />
        </mxCell>
        <mxCell id="Sk9jBVQQrTzFYBsmuePe-27" value="PK" style="shape=partialRectangle;connectable=0;fillColor=none;top=0;left=0;bottom=0;right=0;fontStyle=1;overflow=hidden;whiteSpace=wrap;html=1;align=left;verticalAlign=middle;spacingLeft=4;spacingRight=4;fontFamily=Helvetica;fontSize=12;fontColor=default;" vertex="1" parent="Sk9jBVQQrTzFYBsmuePe-26">
          <mxGeometry width="30" height="30" as="geometry">
            <mxRectangle width="30" height="30" as="alternateBounds" />
          </mxGeometry>
        </mxCell>
        <mxCell id="Sk9jBVQQrTzFYBsmuePe-28" value="plan_id" style="shape=partialRectangle;connectable=0;fillColor=none;top=0;left=0;bottom=0;right=0;align=left;spacingLeft=6;fontStyle=5;overflow=hidden;whiteSpace=wrap;html=1;verticalAlign=middle;spacingRight=4;fontFamily=Helvetica;fontSize=12;fontColor=default;" vertex="1" parent="Sk9jBVQQrTzFYBsmuePe-26">
          <mxGeometry x="30" width="200" height="30" as="geometry">
            <mxRectangle width="200" height="30" as="alternateBounds" />
          </mxGeometry>
        </mxCell>
        <mxCell id="Sk9jBVQQrTzFYBsmuePe-29" value="" style="shape=tableRow;horizontal=0;startSize=0;swimlaneHead=0;swimlaneBody=0;fillColor=none;collapsible=0;dropTarget=0;points=[[0,0.5],[1,0.5]];portConstraint=eastwest;top=0;left=0;right=0;bottom=0;align=left;verticalAlign=middle;spacingLeft=4;spacingRight=4;fontFamily=Helvetica;fontSize=12;fontColor=default;html=1;" vertex="1" parent="Sk9jBVQQrTzFYBsmuePe-25">
          <mxGeometry y="60" width="230" height="30" as="geometry" />
        </mxCell>
        <mxCell id="Sk9jBVQQrTzFYBsmuePe-30" value="" style="shape=partialRectangle;connectable=0;fillColor=none;top=0;left=0;bottom=0;right=0;editable=1;overflow=hidden;whiteSpace=wrap;html=1;align=left;verticalAlign=middle;spacingLeft=4;spacingRight=4;fontFamily=Helvetica;fontSize=12;fontColor=default;" vertex="1" parent="Sk9jBVQQrTzFYBsmuePe-29">
          <mxGeometry width="30" height="30" as="geometry">
            <mxRectangle width="30" height="30" as="alternateBounds" />
          </mxGeometry>
        </mxCell>
        <mxCell id="Sk9jBVQQrTzFYBsmuePe-31" value="plan_name" style="shape=partialRectangle;connectable=0;fillColor=none;top=0;left=0;bottom=0;right=0;align=left;spacingLeft=6;overflow=hidden;whiteSpace=wrap;html=1;verticalAlign=middle;spacingRight=4;fontFamily=Helvetica;fontSize=12;fontColor=default;" vertex="1" parent="Sk9jBVQQrTzFYBsmuePe-29">
          <mxGeometry x="30" width="200" height="30" as="geometry">
            <mxRectangle width="200" height="30" as="alternateBounds" />
          </mxGeometry>
        </mxCell>
        <mxCell id="Sk9jBVQQrTzFYBsmuePe-32" value="" style="shape=tableRow;horizontal=0;startSize=0;swimlaneHead=0;swimlaneBody=0;fillColor=none;collapsible=0;dropTarget=0;points=[[0,0.5],[1,0.5]];portConstraint=eastwest;top=0;left=0;right=0;bottom=0;align=left;verticalAlign=middle;spacingLeft=4;spacingRight=4;fontFamily=Helvetica;fontSize=12;fontColor=default;html=1;" vertex="1" parent="Sk9jBVQQrTzFYBsmuePe-25">
          <mxGeometry y="90" width="230" height="30" as="geometry" />
        </mxCell>
        <mxCell id="Sk9jBVQQrTzFYBsmuePe-33" value="" style="shape=partialRectangle;connectable=0;fillColor=none;top=0;left=0;bottom=0;right=0;editable=1;overflow=hidden;whiteSpace=wrap;html=1;align=left;verticalAlign=middle;spacingLeft=4;spacingRight=4;fontFamily=Helvetica;fontSize=12;fontColor=default;" vertex="1" parent="Sk9jBVQQrTzFYBsmuePe-32">
          <mxGeometry width="30" height="30" as="geometry">
            <mxRectangle width="30" height="30" as="alternateBounds" />
          </mxGeometry>
        </mxCell>
        <mxCell id="Sk9jBVQQrTzFYBsmuePe-34" value="price" style="shape=partialRectangle;connectable=0;fillColor=none;top=0;left=0;bottom=0;right=0;align=left;spacingLeft=6;overflow=hidden;whiteSpace=wrap;html=1;verticalAlign=middle;spacingRight=4;fontFamily=Helvetica;fontSize=12;fontColor=default;" vertex="1" parent="Sk9jBVQQrTzFYBsmuePe-32">
          <mxGeometry x="30" width="200" height="30" as="geometry">
            <mxRectangle width="200" height="30" as="alternateBounds" />
          </mxGeometry>
        </mxCell>
        <mxCell id="Sk9jBVQQrTzFYBsmuePe-38" value="Subscriptions" style="shape=table;startSize=30;container=1;collapsible=1;childLayout=tableLayout;fixedRows=1;rowLines=0;fontStyle=1;align=center;resizeLast=1;html=1;verticalAlign=middle;spacingLeft=4;spacingRight=4;fontFamily=Helvetica;fontSize=12;fontColor=default;fillColor=none;gradientColor=none;" vertex="1" parent="1">
          <mxGeometry x="370" y="280" width="230" height="120" as="geometry" />
        </mxCell>
        <mxCell id="Sk9jBVQQrTzFYBsmuePe-39" value="" style="shape=tableRow;horizontal=0;startSize=0;swimlaneHead=0;swimlaneBody=0;fillColor=none;collapsible=0;dropTarget=0;points=[[0,0.5],[1,0.5]];portConstraint=eastwest;top=0;left=0;right=0;bottom=1;align=left;verticalAlign=middle;spacingLeft=4;spacingRight=4;fontFamily=Helvetica;fontSize=12;fontColor=default;html=1;" vertex="1" parent="Sk9jBVQQrTzFYBsmuePe-38">
          <mxGeometry y="30" width="230" height="30" as="geometry" />
        </mxCell>
        <mxCell id="Sk9jBVQQrTzFYBsmuePe-40" value="PK" style="shape=partialRectangle;connectable=0;fillColor=none;top=0;left=0;bottom=0;right=0;fontStyle=1;overflow=hidden;whiteSpace=wrap;html=1;align=left;verticalAlign=middle;spacingLeft=4;spacingRight=4;fontFamily=Helvetica;fontSize=12;fontColor=default;" vertex="1" parent="Sk9jBVQQrTzFYBsmuePe-39">
          <mxGeometry width="30" height="30" as="geometry">
            <mxRectangle width="30" height="30" as="alternateBounds" />
          </mxGeometry>
        </mxCell>
        <mxCell id="Sk9jBVQQrTzFYBsmuePe-41" value="customer_id" style="shape=partialRectangle;connectable=0;fillColor=none;top=0;left=0;bottom=0;right=0;align=left;spacingLeft=6;fontStyle=5;overflow=hidden;whiteSpace=wrap;html=1;verticalAlign=middle;spacingRight=4;fontFamily=Helvetica;fontSize=12;fontColor=default;" vertex="1" parent="Sk9jBVQQrTzFYBsmuePe-39">
          <mxGeometry x="30" width="200" height="30" as="geometry">
            <mxRectangle width="200" height="30" as="alternateBounds" />
          </mxGeometry>
        </mxCell>
        <mxCell id="Sk9jBVQQrTzFYBsmuePe-42" value="" style="shape=tableRow;horizontal=0;startSize=0;swimlaneHead=0;swimlaneBody=0;fillColor=none;collapsible=0;dropTarget=0;points=[[0,0.5],[1,0.5]];portConstraint=eastwest;top=0;left=0;right=0;bottom=0;align=left;verticalAlign=middle;spacingLeft=4;spacingRight=4;fontFamily=Helvetica;fontSize=12;fontColor=default;html=1;" vertex="1" parent="Sk9jBVQQrTzFYBsmuePe-38">
          <mxGeometry y="60" width="230" height="30" as="geometry" />
        </mxCell>
        <mxCell id="Sk9jBVQQrTzFYBsmuePe-43" value="FK" style="shape=partialRectangle;connectable=0;fillColor=none;top=0;left=0;bottom=0;right=0;editable=1;overflow=hidden;whiteSpace=wrap;html=1;align=left;verticalAlign=middle;spacingLeft=4;spacingRight=4;fontFamily=Helvetica;fontSize=12;fontColor=default;" vertex="1" parent="Sk9jBVQQrTzFYBsmuePe-42">
          <mxGeometry width="30" height="30" as="geometry">
            <mxRectangle width="30" height="30" as="alternateBounds" />
          </mxGeometry>
        </mxCell>
        <mxCell id="Sk9jBVQQrTzFYBsmuePe-44" value="plan_id" style="shape=partialRectangle;connectable=0;fillColor=none;top=0;left=0;bottom=0;right=0;align=left;spacingLeft=6;overflow=hidden;whiteSpace=wrap;html=1;verticalAlign=middle;spacingRight=4;fontFamily=Helvetica;fontSize=12;fontColor=default;" vertex="1" parent="Sk9jBVQQrTzFYBsmuePe-42">
          <mxGeometry x="30" width="200" height="30" as="geometry">
            <mxRectangle width="200" height="30" as="alternateBounds" />
          </mxGeometry>
        </mxCell>
        <mxCell id="Sk9jBVQQrTzFYBsmuePe-45" value="" style="shape=tableRow;horizontal=0;startSize=0;swimlaneHead=0;swimlaneBody=0;fillColor=none;collapsible=0;dropTarget=0;points=[[0,0.5],[1,0.5]];portConstraint=eastwest;top=0;left=0;right=0;bottom=0;align=left;verticalAlign=middle;spacingLeft=4;spacingRight=4;fontFamily=Helvetica;fontSize=12;fontColor=default;html=1;" vertex="1" parent="Sk9jBVQQrTzFYBsmuePe-38">
          <mxGeometry y="90" width="230" height="30" as="geometry" />
        </mxCell>
        <mxCell id="Sk9jBVQQrTzFYBsmuePe-46" value="" style="shape=partialRectangle;connectable=0;fillColor=none;top=0;left=0;bottom=0;right=0;editable=1;overflow=hidden;whiteSpace=wrap;html=1;align=left;verticalAlign=middle;spacingLeft=4;spacingRight=4;fontFamily=Helvetica;fontSize=12;fontColor=default;" vertex="1" parent="Sk9jBVQQrTzFYBsmuePe-45">
          <mxGeometry width="30" height="30" as="geometry">
            <mxRectangle width="30" height="30" as="alternateBounds" />
          </mxGeometry>
        </mxCell>
        <mxCell id="Sk9jBVQQrTzFYBsmuePe-47" value="start_date" style="shape=partialRectangle;connectable=0;fillColor=none;top=0;left=0;bottom=0;right=0;align=left;spacingLeft=6;overflow=hidden;whiteSpace=wrap;html=1;verticalAlign=middle;spacingRight=4;fontFamily=Helvetica;fontSize=12;fontColor=default;" vertex="1" parent="Sk9jBVQQrTzFYBsmuePe-45">
          <mxGeometry x="30" width="200" height="30" as="geometry">
            <mxRectangle width="200" height="30" as="alternateBounds" />
          </mxGeometry>
        </mxCell>
        <mxCell id="Sk9jBVQQrTzFYBsmuePe-51" style="rounded=0;orthogonalLoop=1;jettySize=auto;html=1;exitX=1;exitY=0.5;exitDx=0;exitDy=0;entryX=0;entryY=0.5;entryDx=0;entryDy=0;fontFamily=Helvetica;fontSize=12;fontColor=default;edgeStyle=orthogonalEdgeStyle;endArrow=ERmany;endFill=0;startArrow=ERone;startFill=0;" edge="1" parent="1" source="Sk9jBVQQrTzFYBsmuePe-26" target="Sk9jBVQQrTzFYBsmuePe-42">
          <mxGeometry relative="1" as="geometry" />
        </mxCell>
        <mxCell id="Sk9jBVQQrTzFYBsmuePe-52" value="PK" style="shape=partialRectangle;connectable=0;fillColor=none;top=0;left=0;bottom=0;right=0;fontStyle=1;overflow=hidden;whiteSpace=wrap;html=1;align=left;verticalAlign=middle;spacingLeft=4;spacingRight=4;fontFamily=Helvetica;fontSize=12;fontColor=default;" vertex="1" parent="1">
          <mxGeometry x="370" y="310" width="30" height="30" as="geometry">
            <mxRectangle width="30" height="30" as="alternateBounds" />
          </mxGeometry>
        </mxCell>
        <mxCell id="Sk9jBVQQrTzFYBsmuePe-53" value="INTEGER" style="shape=partialRectangle;connectable=0;fillColor=none;top=0;left=0;bottom=0;right=0;fontStyle=1;overflow=hidden;whiteSpace=wrap;html=1;align=left;verticalAlign=middle;spacingLeft=4;spacingRight=4;fontFamily=Helvetica;fontSize=12;fontColor=default;" vertex="1" parent="1">
          <mxGeometry x="530" y="310" width="70" height="30" as="geometry">
            <mxRectangle width="30" height="30" as="alternateBounds" />
          </mxGeometry>
        </mxCell>
        <mxCell id="Sk9jBVQQrTzFYBsmuePe-54" value="INTEGER" style="shape=partialRectangle;connectable=0;fillColor=none;top=0;left=0;bottom=0;right=0;fontStyle=1;overflow=hidden;whiteSpace=wrap;html=1;align=left;verticalAlign=middle;spacingLeft=4;spacingRight=4;fontFamily=Helvetica;fontSize=12;fontColor=default;" vertex="1" parent="1">
          <mxGeometry x="530" y="340" width="70" height="30" as="geometry">
            <mxRectangle width="30" height="30" as="alternateBounds" />
          </mxGeometry>
        </mxCell>
        <mxCell id="Sk9jBVQQrTzFYBsmuePe-55" value="DATE" style="shape=partialRectangle;connectable=0;fillColor=none;top=0;left=0;bottom=0;right=0;fontStyle=1;overflow=hidden;whiteSpace=wrap;html=1;align=left;verticalAlign=middle;spacingLeft=4;spacingRight=4;fontFamily=Helvetica;fontSize=12;fontColor=default;" vertex="1" parent="1">
          <mxGeometry x="530" y="370" width="70" height="30" as="geometry">
            <mxRectangle width="30" height="30" as="alternateBounds" />
          </mxGeometry>
        </mxCell>
        <mxCell id="Sk9jBVQQrTzFYBsmuePe-56" value="INTEGER" style="shape=partialRectangle;connectable=0;fillColor=none;top=0;left=0;bottom=0;right=0;fontStyle=1;overflow=hidden;whiteSpace=wrap;html=1;align=left;verticalAlign=middle;spacingLeft=4;spacingRight=4;fontFamily=Helvetica;fontSize=12;fontColor=default;" vertex="1" parent="1">
          <mxGeometry x="220" y="310" width="90" height="30" as="geometry">
            <mxRectangle width="30" height="30" as="alternateBounds" />
          </mxGeometry>
        </mxCell>
        <mxCell id="Sk9jBVQQrTzFYBsmuePe-57" value="VARCHAR(13)" style="shape=partialRectangle;connectable=0;fillColor=none;top=0;left=0;bottom=0;right=0;fontStyle=1;overflow=hidden;whiteSpace=wrap;html=1;align=left;verticalAlign=middle;spacingLeft=4;spacingRight=4;fontFamily=Helvetica;fontSize=12;fontColor=default;" vertex="1" parent="1">
          <mxGeometry x="220" y="340" width="90" height="30" as="geometry">
            <mxRectangle width="30" height="30" as="alternateBounds" />
          </mxGeometry>
        </mxCell>
        <mxCell id="Sk9jBVQQrTzFYBsmuePe-58" value="DECIMAL(5,2)" style="shape=partialRectangle;connectable=0;fillColor=none;top=0;left=0;bottom=0;right=0;fontStyle=1;overflow=hidden;whiteSpace=wrap;html=1;align=left;verticalAlign=middle;spacingLeft=4;spacingRight=4;fontFamily=Helvetica;fontSize=12;fontColor=default;" vertex="1" parent="1">
          <mxGeometry x="220" y="370" width="90" height="30" as="geometry">
            <mxRectangle width="30" height="30" as="alternateBounds" />
          </mxGeometry>
        </mxCell>
      </root>
    </mxGraphModel>
  </diagram>
</mxfile>
